<svg height='300px' width='300px'  fill="#000000" xmlns="http://www.w3.org/2000/svg" xmlns:xlink="http://www.w3.org/1999/xlink" version="1.2" baseProfile="tiny" x="0px" y="0px" viewBox="0 0 56 56" xml:space="preserve"><g><path d="M21.492,26.545c5.918,0,10.733-4.815,10.733-10.733c0-5.918-4.815-10.733-10.733-10.733   c-5.918,0-10.733,4.815-10.733,10.733C10.759,21.73,15.574,26.545,21.492,26.545z M21.492,8.622c3.964,0,7.19,3.225,7.19,7.19   c0,3.965-3.225,7.19-7.19,7.19c-3.965,0-7.19-3.226-7.19-7.19C14.302,11.847,17.528,8.622,21.492,8.622z M37.55,25.724   c-2.868,0-5.514,0.964-7.634,2.583c-1.673-0.79-3.521-1.208-5.44-1.208h-5.969c-3.388,0-6.565,1.297-8.947,3.653   c-2.392,2.366-3.71,5.533-3.71,8.917v5.739c0,1.627,1.301,2.95,2.9,2.95h21.194c2.115,1.661,4.751,2.561,7.605,2.561   c6.947,0,12.598-5.652,12.598-12.598S44.497,25.724,37.55,25.724z M9.395,44.817v-5.146c0-2.43,0.944-4.703,2.658-6.398   c1.714-1.695,4.006-2.629,6.455-2.629h5.969c0.96,0,1.895,0.146,2.78,0.424c-1.451,2.053-2.305,4.556-2.305,7.255   c0,2.374,0.66,4.611,1.806,6.494H9.395z M37.55,47.378c-4.993,0-9.055-4.062-9.055-9.055s4.062-9.055,9.055-9.055   c4.993,0,9.055,4.062,9.055,9.055S42.543,47.378,37.55,47.378z M42.861,34.27c0.519,0.519,0.519,1.36,0,1.879l-6.226,6.226   c-0.259,0.259-0.599,0.389-0.94,0.389c-0.34,0-0.68-0.13-0.94-0.389l-2.516-2.516c-0.519-0.519-0.519-1.36,0-1.879   c0.519-0.519,1.36-0.519,1.879,0l1.577,1.577l5.287-5.287C41.501,33.751,42.342,33.751,42.861,34.27z"></path></g></svg>